<?xml version="1.0" encoding="UTF-8"?>
<svg id="Calque_artisan" data-name="Calque_artisan" xmlns="http://www.w3.org/2000/svg" viewBox="0 0 600 600">
  <defs>
    <style>
      .artisan-cls-1 {
        fill: #d56913;
      }

      .artisan-cls-2 {
        fill: #fff;
      }
    </style>
  </defs>
  <path id="Rectangle_1403" data-name="Rectangle 1403" class="artisan-cls-1" d="M168.75,0l262.5.27c93.2.1,168.75,75.69,168.75,168.85v262.38c0,93.16-75.55,168.6-168.75,168.5l-262.5-.27c-93.2-.1-168.75-75.69-168.75-168.85V168.5C0,75.35,75.55-.09,168.75,0Z"/>
  <g id="Groupe_1368" data-name="Groupe 1368">
    <path id="Tracé_651" data-name="Tracé 651" class="artisan-cls-2" d="M474.2,324.69c0,38.59-57.66,66.02-180.87,66.02s-180.66-27.43-180.66-66.02c0-42.5,38.59-76.02,95.54-92.75,4.16,29.35,2.34,59.24-5.34,87.87,55.56-21.39,41.38-95.77,41.38-95.77,13.32-2.02,26.75-3.19,40.22-3.49,8.47,32.62,7.9,66.94-1.63,99.26,57.2-24.87,41.15-98.1,41.15-98.1,14.66,1.25,29.2,3.65,43.48,7.2,5.31,30.27,3.72,61.34-4.65,90.9,45.1-15.81,43.24-77.88,43.24-77.88,41.62,18.32,68.15,47.43,68.15,82.77h0Z"/>
  </g>
</svg>