<?xml version="1.0" encoding="UTF-8"?>
<svg id="Calque_blog" data-name="Calque_blog" xmlns="http://www.w3.org/2000/svg" viewBox="0 0 600 600">
  <defs>
    <style>
      .blog-cls-1 {
        fill: #fff;
      }

      .blog-cls-2 {
        fill: #f6a514;
      }
    </style>
  </defs>
  <path id="Rectangle_1403" data-name="Rectangle 1403" class="blog-cls-2" d="M168.75,0l262.5.27c93.2.1,168.75,75.69,168.75,168.85v262.38c0,93.16-75.55,168.6-168.75,168.5l-262.5-.27c-93.2-.1-168.75-75.69-168.75-168.85V168.5C0,75.35,75.55-.09,168.75,0Z"/>
  <path class="blog-cls-1" d="M458.79,329.93h-56.3v-172.75c0-4.66-3.78-8.44-8.44-8.44h-230.67c-6.07,0-11,4.89-11,10.91v262.86c0,23.16,19.35,42,43.14,42h233.23c21.21,0,38.47-17.26,38.47-38.48v-87.67c0-4.66-3.78-8.44-8.44-8.44ZM342.18,380.98h-129.09c-5.81,0-10.47-4.65-10.47-10.47s4.65-10.47,10.47-10.47h129.09c5.81,0,10.47,4.65,10.47,10.47s-4.65,10.47-10.47,10.47ZM342.18,313.53h-129.09c-5.81,0-10.47-4.65-10.47-10.47s4.65-9.3,10.47-10.47h129.09c5.81,0,10.47,4.65,10.47,10.47s-4.65,10.47-10.47,10.47ZM342.18,246.08h-129.09c-5.81,0-10.47-4.65-10.47-10.47s4.65-9.3,10.47-10.47h129.09c5.81,0,10.47,4.65,10.47,10.47s-4.65,10.47-10.47,10.47ZM450.35,426.04c0,11.91-9.69,21.6-21.6,21.6h-4.66c-11.91,0-21.6-9.69-21.6-21.6v-79.23h47.86v79.23Z"/>
</svg>