<?xml version="1.0" encoding="UTF-8"?>
<svg id="Calque_hotel" data-name="Calque_hotel" xmlns="http://www.w3.org/2000/svg" viewBox="0 0 600 600">
  <defs>
    <style>
      .hotel-cls-1 {
        fill: #fff;
      }

      .hotel-cls-2 {
        fill: #354a99;
      }
    </style>
  </defs>
  <path id="Rectangle_1403" data-name="Rectangle 1403" class="hotel-cls-2" d="M168.75,0l262.5.27c93.2.1,168.75,75.69,168.75,168.85v262.38c0,93.16-75.55,168.6-168.75,168.5l-262.5-.27c-93.2-.1-168.75-75.69-168.75-168.85V168.5C0,75.35,75.55-.09,168.75,0Z"/>
  <g id="Groupe_1378" data-name="Groupe 1378">
    <g id="Groupe_1377" data-name="Groupe 1377">
      <g id="Groupe_1376" data-name="Groupe 1376">
        <path id="Tracé_655" data-name="Tracé 655" class="hotel-cls-1" d="M476.26,350.4c-.46-62.93-51.55-113.74-114.48-113.85h-73.8c-6.14,0-11.12,4.99-11.12,11.13v92.54h-112.11v-153.07c0-6.14-4.98-11.13-11.13-11.13s-11.13,4.98-11.13,11.13v209.58c0,6.14,4.98,11.13,11.13,11.13s11.13-4.98,11.13-11.13v-34.26h123.27l165.99-.67v34.93c0,6.14,4.98,11.13,11.13,11.13s11.13-4.98,11.13-11.13h0v-46.33Z"/>
        <path id="Tracé_656" data-name="Tracé 656" class="hotel-cls-1" d="M252.63,284.39c0,18.42-14.93,33.35-33.35,33.35s-33.35-14.93-33.35-33.35,14.93-33.35,33.35-33.35,33.35,14.93,33.35,33.35h0"/>
      </g>
    </g>
  </g>
</svg>