<?xml version="1.0" encoding="UTF-8"?>
<svg id="Calque_kit_media" xmlns="http://www.w3.org/2000/svg" viewBox="0 0 600 600">
  <defs>
    <style>
      .kitmedia-cls-1 {
        fill: #44980cff;
      }
      .kitmedia-cls-2 {
        fill: #fff;
      }
    </style>
  </defs>
  <!-- Fond rose -->
  <path class="kitmedia-cls-1" d="M168.75,0l262.5.27c93.2.1,168.75,75.69,168.75,168.85v262.38c0,93.16-75.55,168.6-168.75,168.5l-262.5-.27C75.55,599.63,0,524.04,0,430.88V168.5C0,75.35,75.55-.09,168.75,0Z"/>

  <!-- Icône dossier / kit média blanche -->
  <path class="kitmedia-cls-2" d="M440,160H300l-30-30H160c-22.09,0-40,17.91-40,40v260c0,22.09,17.91,40,40,40h280c22.09,0,40-17.91,40-40V200c0-22.09-17.91-40-40-40Zm0,280H160V200h110l30,30h140v210Zm-210-150h180c5.52,0,10,4.48,10,10s-4.48,10-10,10H230c-5.52,0-10-4.48-10-10s4.48-10,10-10Zm0,60h180c5.52,0,10,4.48,10,10s-4.48,10-10,10H230c-5.52,0-10-4.48-10-10s4.48-10,10-10Z"/>
</svg>
