<?xml version="1.0" encoding="UTF-8"?>
<svg id="Calque_people" data-name="Calque_people" xmlns="http://www.w3.org/2000/svg" viewBox="0 0 600 600">
  <defs>
    <style>
      .people-cls-1 {
        fill: #741750;
      }

      .people-cls-2 {
        fill: #fff;
      }
    </style>
  </defs>
  <path id="Rectangle_1403" data-name="Rectangle 1403" class="people-cls-1" d="M168.75,0l262.5.27c93.2.1,168.75,75.69,168.75,168.85v262.38c0,93.16-75.55,168.6-168.75,168.5l-262.5-.27c-93.2-.1-168.75-75.69-168.75-168.85V168.5C0,75.35,75.55-.09,168.75,0Z"/>
  <path class="people-cls-2" d="M209.18,236.94c9.47-6.55,15.68-17.47,15.68-29.85,0-20.04-16.25-36.29-36.29-36.29s-36.29,16.25-36.29,36.29c0,12.38,6.21,23.3,15.68,29.85-14.32,4.95-24.61,18.52-24.61,34.51v50.2c0,7.54,6.11,13.66,13.66,13.66h2.83l5.96,86.73c.27,3.99,3.92,7.15,8.15,7.15h29.25c4.23,0,7.88-3.16,8.15-7.15l5.96-86.73h2.83c7.54,0,13.66-6.11,13.66-13.66v-50.2c0-16-10.29-29.57-24.61-34.51Z"/>
  <path class="people-cls-2" d="M323.36,228.54c10.73-7.42,17.77-19.8,17.77-33.83,0-22.71-18.41-41.13-41.13-41.13s-41.13,18.41-41.13,41.13c0,14.03,7.04,26.41,17.77,33.83-16.22,5.61-27.89,20.98-27.89,39.11v56.88c0,8.55,6.93,15.48,15.48,15.48h3.21l6.75,98.29c.31,4.52,4.44,8.11,9.24,8.11h33.15c4.79,0,8.93-3.59,9.24-8.11l6.75-98.29h3.21c8.55,0,15.48-6.93,15.48-15.48v-56.88c0-18.13-11.67-33.51-27.89-39.11Z"/>
  <path class="people-cls-2" d="M432.05,236.94c9.47-6.55,15.68-17.47,15.68-29.85,0-20.04-16.25-36.29-36.29-36.29s-36.29,16.25-36.29,36.29c0,12.38,6.21,23.3,15.68,29.85-14.32,4.95-24.61,18.52-24.61,34.51v50.2c0,7.54,6.11,13.66,13.66,13.66h2.83l5.96,86.73c.27,3.99,3.92,7.15,8.15,7.15h29.25c4.23,0,7.88-3.16,8.15-7.15l5.96-86.73h2.83c7.54,0,13.66-6.11,13.66-13.66v-50.2c0-16-10.29-29.57-24.61-34.51Z"/>
</svg>