<?xml version="1.0" encoding="UTF-8"?>
<svg id="Calque_recipe" data-name="Calque_recipe" xmlns="http://www.w3.org/2000/svg" viewBox="0 0 600 600">
  <defs>
    <style>
      .recipe-cls-1 {
        fill: #fff;
        fill-rule: evenodd;
      }

      .recipe-cls-2 {
        fill: #e12373;
      }
    </style>
  </defs>
  <path id="Rectangle_1403" data-name="Rectangle 1403" class="recipe-cls-2" d="M168.75,0l262.5.27c93.2.1,168.75,75.69,168.75,168.85v262.38c0,93.16-75.55,168.6-168.75,168.5l-262.5-.27c-93.2-.1-168.75-75.69-168.75-168.85V168.5C0,75.35,75.55-.09,168.75,0Z"/>
  <path class="recipe-cls-1" d="M440.25,272.19v121.24c0,21-17.18,38.17-38.17,38.17h-194.27c-20.99,0-38.17-17.18-38.17-38.17v-121.24h-41.88v-22.1h351.02v22.1h-38.52ZM202.08,271.82v113.89h32.16v-113.89h-32.16ZM319.34,177.78v14.61c41.09,1.09,82.18,6.72,123.27,16.56v18.09h-208.15v-13.86h-33.84v13.86h-30.64v-18.09c38.62-9.72,77.24-15.11,115.88-16.42v-14.75h-18.41v-18.75h69.66v18.75h-17.76Z"/>
</svg>