<?xml version="1.0" encoding="UTF-8"?>
<svg id="Calque_restaurant" data-name="Calque_restaurant" xmlns="http://www.w3.org/2000/svg" viewBox="0 0 600 600">
  <defs>
    <style>
      .restaurant-cls-1 {
        fill: #cc1d1f;
      }

      .restaurant-cls-2 {
        fill: #fff;
      }
    </style>
  </defs>
  <path id="Rectangle_1403" data-name="Rectangle 1403" class="restaurant-cls-1" d="M168.75,0l262.5.27c93.2.1,168.75,75.69,168.75,168.85v262.38c0,93.16-75.55,168.6-168.75,168.5l-262.5-.27c-93.2-.1-168.75-75.69-168.75-168.85V168.5C0,75.35,75.55-.09,168.75,0Z"/>
  <g>
    <path class="restaurant-cls-2" d="M224.91,144.93c-5.02,0-9.1,4.07-9.1,9.1v68.23c0,4.8-3.89,8.68-8.68,8.68h0c-4.8,0-8.68-3.89-8.68-8.68v-68.23c0-5.02-4.07-9.1-9.1-9.1s-9.1,4.07-9.1,9.1v68.23c0,4.8-3.89,8.68-8.68,8.68h0c-4.8,0-8.68-3.89-8.68-8.68v-68.23c0-5.02-4.07-9.1-9.1-9.1s-9.1,4.07-9.1,9.1v80.22c0,20.36,13.63,37.54,32.25,42.91v165.5c0,6.85,5.55,12.41,12.41,12.41s12.41-5.55,12.41-12.41v-165.5c18.63-5.38,32.25-22.55,32.25-42.91v-80.22c0-5.02-4.07-9.1-9.1-9.1Z"/>
    <path class="restaurant-cls-2" d="M289.57,149.77c-3.82-8.12-16-5.4-16,3.57v289.32c0,6.85,5.55,12.41,12.41,12.41s12.41-5.55,12.41-12.41v-117.11c59.19-13.13,16.98-120.91-8.81-175.79Z"/>
    <path class="restaurant-cls-2" d="M455.05,212.57c0-37.35-22.29-67.64-49.79-67.64s-49.79,30.28-49.79,67.64c0,31.32,15.67,57.66,36.94,65.36v164.3c0,7.09,5.75,12.85,12.85,12.85h0c7.09,0,12.85-5.75,12.85-12.85v-164.3c21.27-7.7,36.94-34.04,36.94-65.36Z"/>
  </g>
</svg>