<?xml version="1.0" encoding="UTF-8"?>
<svg id="Calque_utensil" data-name="Calque_utensil" xmlns="http://www.w3.org/2000/svg" viewBox="0 0 600 600">
  <defs>
    <style>
      .utensil-cls-1 {
        fill: #e76ca5;
      }

      .utensil-cls-2 {
        fill: #fff;
      }
    </style>
  </defs>
  <path id="Rectangle_1403" data-name="Rectangle 1403" class="utensil-cls-1" d="M168.75,0l262.5.27c93.2.1,168.75,75.69,168.75,168.85v262.38c0,93.16-75.55,168.6-168.75,168.5l-262.5-.27c-93.2-.1-168.75-75.69-168.75-168.85V168.5C0,75.35,75.55-.09,168.75,0Z"/>
  <path class="utensil-cls-2" d="M459.29,148.96c-.06-.06-.12-.12-.19-.18-.01-.01-.02-.02-.03-.04-.09-.1-.19-.19-.29-.29,0,0-.01-.01-.02-.02,0,0-.02-.01-.02-.02-.19-.19-.38-.37-.58-.55-11.47-11.16-26.27-17.56-44.05-19.02-6.44-.53-16.6-.63-28.43,1.9-3.77.8-8.03,2.27-12.66,4.34-17.57,7.89-32.37,20.78-42.81,37.29-24.02,37.96-54.47,143.34-58.16,156.31l-9.85,9.85-6.37-6.37c-1.73-1.73-4.52-1.8-6.33-.14l-101.77,92.93c-4.98,4.54-7.8,10.76-7.96,17.5s2.39,13.07,7.15,17.84h0c4.63,4.63,10.74,7.16,17.27,7.16.19,0,.38,0,.57,0,6.74-.15,12.95-2.98,17.5-7.96l92.93-101.77c1.65-1.81,1.59-4.6-.14-6.33l-6.37-6.37,9.84-9.84c12.89-3.67,118.29-34.1,156.29-58.15,15.51-9.82,27.93-23.61,35.89-39.88,2.85-5.83,4.79-11.08,5.77-15.61,2.92-13.58,7.08-47.84-17.17-72.57ZM448.29,152.44l-150.54,150.54c18.34-31.08,46.83-77.9,64.83-100.37,11.15-13.93,24.46-26.37,38.5-35.97,3.57-2.45,6.7-4.36,9.3-5.7,10.24-5.28,22.12-9.57,31.15-9.57,2.51,0,4.79.35,6.76,1.08ZM454.81,158.88c2.99,7.8,0,21.46-8.53,37.96-1.62,3.15-4.11,7.08-7.39,11.68-9.36,13.16-21.23,25.66-34.32,36.14-22.49,18-69.3,46.48-100.36,64.82l150.6-150.6ZM337.95,177.27c9.48-14.98,22.91-26.68,38.83-33.83,4.04-1.81,7.68-3.07,10.82-3.74,7-1.49,13.41-2.13,19.26-2.13,11.05,0,20.1,2.27,27.27,5.32-10.89,1.75-21.82,6.73-27.95,9.89-2.93,1.51-6.39,3.63-10.28,6.29-14.77,10.11-28.77,23.18-40.48,37.81-17.93,22.4-45.26,67.08-63.7,98.24,11.77-37.53,30.69-93.3,46.22-117.84ZM467.51,219.61c-.82,3.8-2.51,8.35-5.04,13.5h0c-7.22,14.75-18.48,27.26-32.57,36.17-24.55,15.54-80.32,34.45-117.84,46.21,31.15-18.42,75.81-45.75,98.23-63.69,13.75-11,26.22-24.14,36.06-37.98,3.53-4.96,6.24-9.26,8.06-12.79,3.78-7.31,8.37-17.77,10.03-27.96,7.59,18.18,5,37.48,3.06,46.54Z"/>
</svg>