<?xml version="1.0" encoding="UTF-8"?>
<svg id="Calque_winery" data-name="Calque_winery" xmlns="http://www.w3.org/2000/svg" viewBox="0 0 600 600">
  <defs>
    <style>
      .winery-cls-1 {
        fill: #fff;
      }

      .winery-cls-2 {
        fill: #08997a;
      }
    </style>
  </defs>
  <path id="Rectangle_1403" data-name="Rectangle 1403" class="winery-cls-2" d="M168.75,0l262.5.27c93.2.1,168.75,75.69,168.75,168.85v262.38c0,93.16-75.55,168.6-168.75,168.5l-262.5-.27c-93.2-.1-168.75-75.69-168.75-168.85V168.5C0,75.35,75.55-.09,168.75,0Z"/>
  <path class="winery-cls-1" d="M458.37,195.33s-40.98-51.81-42.73-51.81c-1.86-.05-3.62.84-4.69,2.35l-38.16,49.46c-.82,1.04-1.27,2.32-1.29,3.64v19.04h-145.41v-19.04c-.02-1.32-.47-2.6-1.29-3.64l-38.05-49.46s-.03-.04-.05-.06c-2.14-2.63-6-3.02-8.63-.88,0,.06-.05.11-.11.11-.26.25-.49.53-.69.83l-38.17,49.46c-.73,1.07-1.14,2.34-1.17,3.64v252.5c0,3.3,2.67,5.98,5.97,6h309.81c3.3-.02,5.96-2.7,5.97-6v-252.5c-.02-1.32-.48-2.6-1.3-3.64ZM203.71,417.84c0,3.3-2.67,5.98-5.97,6h-33.37c-3.3-.02-5.96-2.7-5.96-6v-52.84c0-12.5,10.09-22.65,22.59-22.72h.11c12.5.03,22.61,10.18,22.6,22.68v52.88ZM203.73,322.08c-.08,3.27-2.7,5.9-5.97,5.99h-33.25c-3.3-.01-5.97-2.69-5.98-5.99v-52.99c0-12.47,10.12-22.57,22.59-22.57l-.11-.12c12.57.03,22.73,10.23,22.72,22.8v52.88ZM250.27,327.96c-3.28-.03-5.91-2.72-5.88-6v-52.88l-.05.04c0-12.52,10.14-22.68,22.66-22.72,12.5.03,22.6,10.18,22.59,22.68v52.99c-.02,3.27-2.69,5.91-5.97,5.89h-33.35ZM324.66,445.49l-51.98.11v-65.2s0-.08,0-.12c-.32-14.35,11.06-26.24,25.41-26.56l.65-.05c14.14.07,25.65,11.41,25.92,25.55v66.27ZM299.21,342.88c18.01.27,32.99,13.03,36.66,30.01-3.68-16.97-18.64-29.73-36.66-30.01ZM336.72,380.4c-.03-2.27-.34-4.48-.76-6.64.41,2.15.72,4.34.76,6.6v.03ZM353.28,321.96v.1c-.02,3.28-2.7,5.92-5.98,5.9h-33.36c-3.27-.04-5.89-2.73-5.86-6v-52.88l-.05.04v-.06c0-12.51,10.13-22.65,22.64-22.66,12.5.03,22.62,10.18,22.61,22.68v52.88ZM438.11,417.84c0,3.3-2.67,5.98-5.97,6h-33.37c-3.3-.02-5.96-2.7-5.97-6v-52.93c.02-12.52,10.19-22.65,22.71-22.63h.11c12.46.07,22.52,10.22,22.48,22.68v52.88ZM438.11,321.96c.01,3.26-2.59,5.93-5.85,6h-33.37c-3.3-.02-5.97-2.7-5.98-6v-52.88.04s0-.05,0-.07c.02-12.52,10.19-22.66,22.71-22.65,12.44.12,22.47,10.23,22.48,22.68v52.88Z"/>
</svg>