<svg width="144" height="21" viewBox="0 0 144 21" fill="none" xmlns="http://www.w3.org/2000/svg">
<path fill-rule="evenodd" clip-rule="evenodd" d="M10.4626 20.0813C7.12198 20.0813 4.59682 19.2222 2.74294 17.4553C0.973534 15.7743 -0.0256765 13.1354 0.00355351 10.2158C0.00355351 4.10079 4.40925 -0.0078125 10.9666 -0.0078125C13.3154 -0.0078125 15.1661 0.456297 16.0959 0.874488L15.3726 3.52844C14.4395 3.13981 13.097 2.72291 10.9364 2.72291C6.37039 2.72291 3.53369 5.52493 3.53369 10.0366C3.53369 14.5155 6.3113 17.4094 10.611 17.4094C11.8395 17.4094 12.8937 17.2491 13.4307 16.98L13.5107 16.9395V11.728H9.98566V9.14533H16.7453V18.9993C15.2843 19.5286 12.8985 20.0814 10.4626 20.0814" fill="#DD0A00"/>
<path fill-rule="evenodd" clip-rule="evenodd" d="M26.2227 12.8209C23.0651 12.8209 21.3959 13.8044 21.3959 15.6657C21.3959 17.0339 22.2457 17.8841 23.6143 17.8841C25.2138 17.8841 26.2817 16.803 26.5962 15.798C26.7054 15.4733 26.7215 15.1302 26.7215 14.9549V12.828L26.2227 12.8209ZM22.459 20.2008C19.5793 20.2008 18.0723 18.1128 18.0723 16.0504C18.0723 12.6295 21.0166 10.7457 26.3617 10.7457L26.6335 10.7467V10.3635C26.6335 9.36913 26.2336 7.70025 23.5552 7.70025C22.2396 7.70025 20.8046 8.07636 19.7594 8.6895L19.1363 6.60951C19.7296 6.2652 21.4752 5.41406 24.1777 5.41406C28.9781 5.41406 29.9866 8.63715 29.9866 11.3409V16.5547C29.9866 17.5192 30.0184 18.8547 30.1684 19.8748H27.1756L26.9389 18.2756C26.0001 19.464 24.1584 20.2008 22.459 20.2008" fill="#DD0A00"/>
<path fill-rule="evenodd" clip-rule="evenodd" d="M37.1807 20.1993C35.3551 20.1993 32.291 19.4025 32.291 14.0647V5.73829H35.6435V13.4422C35.6435 16.1534 36.5997 17.5274 38.4844 17.5274C40.0065 17.5274 41.0083 16.4264 41.4033 15.4827C41.5495 15.0822 41.6218 14.6868 41.6218 14.3014V5.73828H44.9733V15.6937C44.9733 17.3295 45.0286 18.7196 45.0858 19.8733H42.1739L41.9953 17.6812C41.5537 18.4168 39.9143 20.1993 37.1807 20.1993Z" fill="#DD0A00"/>
<path fill-rule="evenodd" clip-rule="evenodd" d="M47.4258 -0.0078125H50.8085V19.8739H47.4258V-0.0078125Z" fill="#DD0A00"/>
<path fill-rule="evenodd" clip-rule="evenodd" d="M58.5977 20.1714C57.3351 20.1714 56.23 19.7564 55.5648 19.0331C54.8222 18.234 54.4763 16.9855 54.4763 15.1031V8.17414H52.4033V5.73987H54.4763V2.45062L57.7412 1.66211V5.73987H61.2061V8.17414H57.7412V14.6881C57.7412 15.9972 57.9695 17.4994 59.7521 17.4994C60.204 17.4994 60.635 17.4532 61.0336 17.3623L61.0869 19.8601C60.5187 20.0554 59.6008 20.1714 58.5977 20.1714" fill="#DD0A00"/>
<path fill-rule="evenodd" clip-rule="evenodd" d="M102.579 3.75901C101.478 3.75901 100.709 3.01449 100.709 1.94913C100.709 0.883115 101.508 0.109375 102.608 0.109375C103.714 0.109375 104.478 0.850025 104.507 1.95329C104.507 3.01449 103.714 3.759 102.579 3.759M100.917 5.70153H104.3V19.8372H100.917V5.70153Z" fill="#DD0A00"/>
<path fill-rule="evenodd" clip-rule="evenodd" d="M106.621 0.164062H110.004V19.8386H106.621V0.164062Z" fill="#DD0A00"/>
<path fill-rule="evenodd" clip-rule="evenodd" d="M112.36 0.164062H115.742V19.8386H112.36V0.164062Z" fill="#DD0A00"/>
<path fill-rule="evenodd" clip-rule="evenodd" d="M90.0045 19.6012L92.6389 11.1733C93.4145 8.60929 94.9385 3.30942 94.9385 3.30942C94.9385 3.30942 95.3037 7.54103 95.6156 11.948C95.7553 13.9188 96.0527 19.8389 96.0527 19.8389H98.9026L97.589 0.164062H93.0317L90.4583 8.09123C89.7752 10.3395 88.9603 12.8493 88.4454 15.1268H88.3712C87.8564 12.8493 87.0415 10.3395 86.3581 8.09123L83.7851 0.164062H79.2278L77.9141 19.8389H80.7639C80.7639 19.8389 81.0611 13.9188 81.2007 11.948C81.513 7.54103 81.8781 3.30942 81.8781 3.30942C81.8781 3.30942 83.4022 8.60929 84.1779 11.1733L86.8122 19.6012H90.0045Z" fill="#DD0A00"/>
<path fill-rule="evenodd" clip-rule="evenodd" d="M125.192 12.7975C122.035 12.7975 120.366 13.7809 120.366 15.6422C120.366 17.0105 121.215 17.8606 122.584 17.8606C124.183 17.8606 125.251 16.7795 125.566 15.7745C125.675 15.4498 125.691 15.1065 125.691 14.9311V12.8045L125.192 12.7975ZM121.429 20.1773C118.549 20.1773 117.042 18.089 117.042 16.027C117.042 12.606 119.986 10.7223 125.332 10.7223L125.603 10.7233V10.3401C125.603 9.34537 125.203 7.67682 122.525 7.67682C121.209 7.67682 119.774 8.05293 118.729 8.66606L118.106 6.58575C118.699 6.24177 120.445 5.39062 123.147 5.39062C127.948 5.39062 128.956 8.61339 128.956 11.3175V16.5309C128.956 17.4958 128.988 18.8309 129.138 19.8513H126.145L125.909 18.2518C124.97 19.4405 123.128 20.1773 121.429 20.1773" fill="#DD0A00"/>
<path fill-rule="evenodd" clip-rule="evenodd" d="M135.923 20.1645C134.097 20.1645 131.033 19.3673 131.033 14.0295V5.70313H134.386V13.4074C134.386 16.1182 135.342 17.4925 137.227 17.4925C138.749 17.4925 139.75 16.3915 140.145 15.4479C140.292 15.047 140.364 14.652 140.364 14.2666V5.70312H143.716V15.6589C143.716 17.2947 143.771 18.6845 143.828 19.8381H140.916L140.738 17.6464C140.296 18.3819 138.657 20.1645 135.923 20.1645" fill="#DD0A00"/>
<path fill-rule="evenodd" clip-rule="evenodd" d="M70.3311 2.49805C72.3991 2.77812 73.4331 3.90067 73.4331 4.98563C73.4331 5.71183 72.9076 6.23761 72.1063 6.23761C71.4302 6.23761 70.8543 5.71183 70.8543 4.98563C70.8543 4.20933 71.4051 3.88397 71.4051 3.50818C71.4051 3.20787 71.1549 2.67856 70.3311 2.49805" fill="#DD0A00"/>
<path fill-rule="evenodd" clip-rule="evenodd" d="M69.1366 2.51172C67.2879 2.79276 66.5206 4.52298 66.5206 6.58017C66.5206 8.32003 66.5218 9.70819 67.9823 10.1851C65.6405 9.68764 64.0166 8.51113 64.0166 6.55512C64.0166 3.87066 66.2094 2.64758 69.1366 2.51172Z" fill="#DD0A00"/>
<path fill-rule="evenodd" clip-rule="evenodd" d="M69.1374 19.8778C65.6285 19.6032 63.332 18.1062 63.332 14.9168C63.332 12.3887 65.0616 11.1711 67.8597 10.6094C66.3196 11.1991 65.8356 12.7134 65.8356 14.9168C65.8356 17.256 66.734 19.37 69.1374 19.8778Z" fill="#DD0A00"/>
<path fill-rule="evenodd" clip-rule="evenodd" d="M72.7719 10.8236C70.3432 11.625 68.1646 12.1758 68.1646 13.3526C68.1646 13.3526 68.0229 13.1943 67.9892 12.902C67.7618 10.9119 69.9176 10.1976 72.2963 9.42133C74.9255 8.56986 76.1521 8.09452 76.1521 7.01758C76.1521 7.01758 76.2783 7.21415 76.3025 7.44347C76.4887 9.20581 74.8253 10.1475 72.8722 10.7986" fill="#DD0A00"/>
<path fill-rule="evenodd" clip-rule="evenodd" d="M70.6221 19.8785C72.4708 19.5975 73.2381 17.8669 73.2381 15.8097C73.2381 14.0702 73.2369 12.6817 71.7764 12.2051C74.1179 12.7026 75.7421 13.8791 75.7421 15.8351C75.7421 18.5196 73.5494 19.7426 70.6221 19.8785" fill="#DD0A00"/>
</svg>
