<svg width="16" height="18" viewBox="0 0 16 18" fill="none" xmlns="http://www.w3.org/2000/svg">
<mask id="mask0_10857_21250" style="mask-type:luminance" maskUnits="userSpaceOnUse" x="0" y="0" width="16" height="18">
<path fill-rule="evenodd" clip-rule="evenodd" d="M0 0H15.5296V17.2312H0V0Z" fill="white"/>
</mask>
<g>
<path fill-rule="evenodd" clip-rule="evenodd" d="M8.14855 12.9291C8.24317 12.9905 8.3413 13.0434 8.44371 13.0809C8.56653 13.1254 8.69365 13.1466 8.82071 13.1218C8.98101 13.0887 9.16526 12.9736 9.29658 12.8797C9.50557 12.7243 9.71034 12.5393 9.89532 12.3551C9.95676 12.2936 10.0182 12.228 10.0796 12.1659C10.2723 11.9653 10.4694 11.7563 10.744 11.6745C10.9982 11.5919 11.2439 11.6412 11.4783 11.7606L15.2543 13.6874C15.3567 13.7411 15.4428 13.823 15.4887 13.9338C15.5417 14.0609 15.5374 14.2 15.5085 14.3356C15.3899 14.8686 15.1929 15.389 14.885 15.8402C14.4261 16.5046 13.7822 16.9226 13.0034 17.1111C12.1752 17.3123 11.2686 17.2382 10.4447 17.0539C9.0057 16.7298 7.56604 16.0287 6.35657 15.1963C5.83201 14.8355 5.33563 14.409 4.87599 13.9748C4.33092 13.4622 3.80985 12.9122 3.33466 12.3382C2.85454 11.7606 2.41185 11.1491 2.00589 10.5179C1.66556 9.98486 1.33724 9.41859 1.07956 8.84031C0.485039 7.49179 0.0578787 5.94974 0.00488866 4.47761C-0.0240413 3.63318 0.0705987 2.73083 0.418649 1.95206C0.746969 1.22197 1.28005 0.664205 2.01434 0.340855C2.51849 0.114895 3.06779 0.0210047 3.61357 0.000524675C3.74843 -0.00369533 3.884 0.0167647 3.99907 0.0902147C4.10148 0.155875 4.16711 0.254685 4.19961 0.369085L5.39707 4.43668C5.4712 4.68665 5.4712 4.94151 5.34765 5.17521C5.21279 5.42515 4.97484 5.58117 4.74114 5.73227C4.66701 5.78169 4.59359 5.83114 4.52365 5.88407C4.30624 6.03168 4.08873 6.19618 3.90022 6.37618C3.78163 6.48707 3.63407 6.64309 3.57264 6.7949C3.52319 6.91774 3.51897 7.04487 3.53943 7.17618C3.56414 7.30679 3.61356 7.44235 3.6665 7.56523C3.84729 7.97967 4.14662 8.43083 4.4086 8.79941C4.7941 9.3572 5.21279 9.89448 5.64276 10.4156C6.07771 10.9359 6.52887 11.4485 7.00475 11.9329C7.32462 12.2563 7.70588 12.6298 8.08294 12.8839L8.14855 12.9291Z" fill="black"/>
</g>
</svg>
