<svg width="18" height="18" viewBox="0 0 18 18" fill="none" xmlns="http://www.w3.org/2000/svg">
<path fill-rule="evenodd" clip-rule="evenodd" d="M8.99142 0C4.03355 0 0 4.03351 0 8.99142C0 13.9493 4.03355 17.9828 8.99142 17.9828C13.9493 17.9828 17.9828 13.9493 17.9828 8.99142C17.9828 4.03351 13.9493 0 8.99142 0ZM8.99175 16.8406C8.20947 16.8406 7.20155 15.2449 6.71582 12.487H11.2678C10.782 15.2449 9.77403 16.8406 8.99175 16.8406ZM6.55312 11.3449C6.4734 10.6206 6.42849 9.83427 6.42849 8.99141C6.42849 8.14855 6.4734 7.36221 6.55312 6.63791H11.4298C11.5095 7.36221 11.5543 8.14856 11.5543 8.99141C11.5543 9.83427 11.5095 10.6206 11.4298 11.3449H6.55312ZM1.14258 8.99144C1.14258 8.17184 1.26918 7.38124 1.50322 6.63794H5.40739C5.3279 7.39536 5.28678 8.18545 5.28678 8.99144C5.28678 9.79738 5.3279 10.5875 5.40739 11.3449H1.50322C1.26917 10.6016 1.14258 9.81105 1.14258 8.99144ZM8.99175 1.14215C9.77403 1.14215 10.782 2.73795 11.2678 5.49578H6.71582C7.20155 2.73796 8.20947 1.14215 8.99175 1.14215ZM12.5762 6.63794H16.4803C16.7144 7.38125 16.8409 8.17184 16.8409 8.99144C16.8409 9.81104 16.7144 10.6016 16.4803 11.3449H12.5762C12.6557 10.5875 12.6968 9.79739 12.6968 8.99144C12.6968 8.18545 12.6557 7.39536 12.5762 6.63794ZM16.0178 5.49577H12.423C12.2623 4.51928 12.0334 3.61918 11.7427 2.83814C11.5382 2.28863 11.3068 1.81391 11.0538 1.41763C13.2278 2.01031 15.0289 3.51607 16.0178 5.49577M6.92898 1.41763C6.67606 1.81386 6.44467 2.28863 6.24013 2.83814C5.94948 3.61918 5.72059 4.51928 5.55996 5.49577H1.96499C2.9539 3.51607 4.75497 2.01031 6.92898 1.41763ZM1.96499 12.487H5.55996C5.72059 13.4635 5.94948 14.3636 6.24013 15.1446C6.44467 15.6942 6.67606 16.1689 6.92898 16.5652C4.75498 15.9725 2.95391 14.4668 1.96499 12.487ZM11.0538 16.5652C11.3068 16.1689 11.5382 15.6942 11.7427 15.1446C12.0335 14.3636 12.2623 13.4635 12.423 12.487H16.0178C15.0289 14.4668 13.2279 15.9725 11.0538 16.5652" fill="black"/>
</svg>
